<svg xmlns="http://www.w3.org/2000/svg" width="1280" height="720" viewBox="0 0 1280 720">
  <g id="background"><rect width="1280" height="720" fill="#FFFFFF"/></g>
  <g id="header"><rect x="72" y="48" width="400" height="4" fill="#9E0116"/><rect x="72" y="72" width="1136" height="30" fill="#F2F2F2"/><text x="86" y="94" font-family="Arial, Microsoft YaHei, sans-serif" font-size="20" font-weight="bold" fill="#9E0116">{{PAGE_TITLE}}</text><text x="72" y="144" font-family="Arial, Microsoft YaHei, sans-serif" font-size="18" fill="#706F71">{{KEY_MESSAGE}}</text></g>
  <g id="timeline-axis"><line x1="250" y1="190" x2="250" y2="580" stroke="#D9D9D9" stroke-width="8" stroke-linecap="round"/></g>
  <g id="timeline-1"><circle cx="250" cy="220" r="32" fill="#9E0116"/><text x="250" y="228" text-anchor="middle" font-family="Arial, sans-serif" font-size="20" font-weight="bold" fill="#FFFFFF">01</text><rect x="320" y="182" width="820" height="76" rx="8" fill="#F2F2F2"/><text x="350" y="214" font-family="Arial, Microsoft YaHei, sans-serif" font-size="19" font-weight="bold" fill="#262626">{{ITEM_1_TITLE}}</text><text x="350" y="240" font-family="Arial, Microsoft YaHei, sans-serif" font-size="15" fill="#706F71">{{ITEM_1_BODY}}</text></g>
  <g id="timeline-2"><circle cx="250" cy="330" r="32" fill="#5D070C"/><text x="250" y="338" text-anchor="middle" font-family="Arial, sans-serif" font-size="20" font-weight="bold" fill="#FFFFFF">02</text><rect x="320" y="292" width="820" height="76" rx="8" fill="#F2F2F2"/><text x="350" y="324" font-family="Arial, Microsoft YaHei, sans-serif" font-size="19" font-weight="bold" fill="#262626">{{ITEM_2_TITLE}}</text><text x="350" y="350" font-family="Arial, Microsoft YaHei, sans-serif" font-size="15" fill="#706F71">{{CONTENT_AREA}}</text></g>
  <g id="timeline-3"><circle cx="250" cy="440" r="32" fill="#706F71"/><text x="250" y="448" text-anchor="middle" font-family="Arial, sans-serif" font-size="20" font-weight="bold" fill="#FFFFFF">03</text><rect x="320" y="402" width="820" height="76" rx="8" fill="#F2F2F2"/><text x="350" y="434" font-family="Arial, Microsoft YaHei, sans-serif" font-size="19" font-weight="bold" fill="#262626">{{ITEM_3_TITLE}}</text><text x="350" y="460" font-family="Arial, Microsoft YaHei, sans-serif" font-size="15" fill="#706F71">{{ITEM_3_BODY}}</text></g>
  <g id="timeline-4"><circle cx="250" cy="550" r="32" fill="#BF9D5A"/><text x="250" y="558" text-anchor="middle" font-family="Arial, sans-serif" font-size="20" font-weight="bold" fill="#FFFFFF">04</text><rect x="320" y="512" width="820" height="76" rx="8" fill="#F2F2F2"/><text x="350" y="544" font-family="Arial, Microsoft YaHei, sans-serif" font-size="19" font-weight="bold" fill="#262626">{{ITEM_4_TITLE}}</text><text x="350" y="570" font-family="Arial, Microsoft YaHei, sans-serif" font-size="15" fill="#706F71">{{ITEM_4_BODY}}</text></g>
  <g id="footer"><image href="brand_logo_footer.png" x="72" y="665" width="75" height="21" preserveAspectRatio="xMidYMid meet"/><text x="1208" y="681" text-anchor="end" font-family="Arial, sans-serif" font-size="13" fill="#9E0116">{{PAGE_NUM}}</text></g>
</svg>
